# xmcd
#
# Track frame offsets:
#	150
#	18713
#	31802
#	51337
#	68162
#	85988
#	106081
#	118137
#	137147
#	154025
#	173970
#	190233
#	211775
#	228527
#	241954
#	259586
#	275171
#	294247
#	312722
#	333262
#
# Disc length: 4677 seconds
#
# Revision: 1
# Processed by: cddbd v1.5.2PL0 Copyright (c) Steve Scherf et al.
# Submitted via: EasyCDDAExtractor 9.1.0.1
#
DISCID=26124314
DTITLE=Various Artist - ΣΕ ΘΕΛΩ ΕΔΩ
DYEAR=2008
DGENRE=Cabaret
TTITLE0=ΠΡΩΤΟΨΑΛΤΗ - ΠΑΜΕ ΧΑΒΑΗ
TTITLE1=LOCOMONDO - ΚΑΡΑΜΠΙΜΠΕΡΙΜ
TTITLE2=ΠΑΠΑΚΩΝΣΤΑΝΤΙΝΟΥ - ΚΙΘΑΡΙΣΤΑΣ ΤΟΥ ΘΕΟΥ
TTITLE3=ΓΑΛΑΝΗ - ΚΟΚΚΙΝΟ ΤΡΑΙΝΟ
TTITLE4=ΜΑΚΡΙΝΑ ΞΑΔΕΡΦΙΑ - ΚΑΛΟ ΤΑΞΙΔΙ
TTITLE5=Κ ΒΗΤΑ - ΟΛΟ ΑΥΤΟ ΠΟΥ ΠΟΤΕ
TTITLE6=ΠΕΡΙΔΗΣ - ΚΛΕΦΤΗ ΕΡΩΤΑ
TTITLE7=ΠΛΙΑΤΣΙΚΑΣ - ΠΟΙΟΣ ΕΧΕΙ ΛΟΓΟ ΣΤΗΝ ΑΓΑΠΗ
TTITLE8=ΞΥΔΟΥΣ - ΒΡΑΔΙΑΣΕ, ΤΑ ΞΑΝΑΛΕΜΕ
TTITLE9=ΠΛΙΑΤΣΙΚΑΣ - ΑΝ ΘΑ ΜΠΟΡΟΥΣΑ ΤΟΝ ΚΟΣΜΟ ΝΑ ΑΛΛΑΖΑ
TTITLE10=ΔΑΡΡΑ - ΑΓΑΠΗ ΘΑΛΑΣΣΑ
TTITLE11=ΑΡΒΑΝΙΤΑΚΗ - ΜΗΝ ΟΡΚΙΖΕΣΑΙ (COME MONNA LISA)
TTITLE12=ΠΛΙΑΤΣΙΚΑΣ - ΠΟΛΗ ΧΙΟΝΙ
TTITLE13=ΓΙΩΡΓΟΣ ΚΑΡΑΔΗΜΟΣ - ΜΕ ΠΝΙΓΕΙ ΤΟΥΤΗ Η ΣΙΩΠΗ
TTITLE14=ΟΝΑΡ - ΑΝ Μ' ΑΓΑΠΑΣ
TTITLE15=ΓΑΛΑΝΗ and ΚΑΡΑΔΗΜΟΣ - ΣΕ ΘΕΛΩ ΕΔΩ
TTITLE16=Ο ΛΕΩΝΙΔΑΣ ΚΑΙ ΟΙ ΠΟΤΕΣ - ΜΗΝ ΑΡΧΙΖΕΙΣ ΞΑΝΑ (WAY)
TTITLE17=ΓΑΛΑΝΗ - QUERER
TTITLE18=ΗΡΩ FEAT GI GI D' ALESIO - ΑΓΑΠΗ ΜΟΥ
TTITLE19=ΤΕΝΤΖΕΡΑΚΗΣ - ΠΟΝΑΝΕ ΟΣΟΙ ΑΓΑΠΑΝΕ
EXTD=
EXTT0=
EXTT1=
EXTT2=
EXTT3=
EXTT4=
EXTT5=
EXTT6=
EXTT7=
EXTT8=
EXTT9=
EXTT10=
EXTT11=
EXTT12=
EXTT13=
EXTT14=
EXTT15=
EXTT16=
EXTT17=
EXTT18=
EXTT19=
PLAYORDER=
